<svg xmlns="http://www.w3.org/2000/svg" xmlns:xlink="http://www.w3.org/1999/xlink" width="500" zoomAndPan="magnify" viewBox="0 0 375 374.999991" height="500" preserveAspectRatio="xMidYMid meet" version="1.0"><defs><g/><clipPath id="id1"><path d="M 70.691406 163.402344 L 127.691406 163.402344 L 127.691406 209.902344 L 70.691406 209.902344 Z M 70.691406 163.402344 " clip-rule="nonzero"/></clipPath></defs><rect x="-37.5" width="450" fill="#ffffff" y="-37.499999" height="449.999989" fill-opacity="1"/><rect x="-37.5" width="450" fill="#ffffff" y="-37.499999" height="449.999989" fill-opacity="1"/><rect x="-37.5" width="450" fill="#ffffff" y="-37.499999" height="449.999989" fill-opacity="1"/><g clip-path="url(#id1)"><path fill="#d71920" d="M 98.609375 209.847656 L 75.828125 198.300781 L 75.828125 208.453125 L 70.691406 208.453125 L 70.691406 189.929688 L 98.585938 204.074219 L 110.144531 198.117188 L 110.144531 191.035156 L 98.511719 195.632812 L 70.691406 182.472656 L 70.691406 163.453125 L 98.621094 177.136719 L 127.691406 163.539062 L 127.691406 208.671875 L 122.554688 208.671875 L 122.554688 171.605469 L 98.574219 182.835938 L 75.828125 171.6875 L 75.828125 179.222656 L 98.695312 190.027344 L 115.28125 183.492188 L 115.28125 201.25 Z M 98.609375 209.847656 " fill-opacity="1" fill-rule="nonzero"/></g><g fill="#545454" fill-opacity="1"><g transform="translate(134.523922, 182.249988)"><g><path d="M 4.703125 0.0625 C 4.359375 0.0195312 3.703125 0 2.734375 0 L 1.875 0 L 1.875 -14.1875 C 2.332031 -14.15625 2.832031 -14.140625 3.375 -14.140625 C 3.925781 -14.140625 4.316406 -14.171875 4.546875 -14.234375 L 8.109375 -8.15625 L 11.546875 -14.234375 C 11.773438 -14.171875 12.207031 -14.140625 12.84375 -14.140625 C 13.488281 -14.140625 14.035156 -14.15625 14.484375 -14.1875 L 14.484375 0 L 13.640625 0 C 12.660156 0 12.003906 0.0195312 11.671875 0.0625 L 11.671875 -9.46875 L 8.1875 -3.25 L 4.703125 -8.96875 Z M 4.703125 0.0625 "/></g></g></g><g fill="#545454" fill-opacity="1"><g transform="translate(153.935441, 182.249988)"><g><path d="M 2.15625 -14.1875 C 2.863281 -14.15625 3.296875 -14.140625 3.453125 -14.140625 L 4.21875 -14.140625 C 4.59375 -14.140625 4.890625 -14.171875 5.109375 -14.234375 L 5.109375 0 L 2.15625 0 Z M 2.15625 -14.1875 "/></g></g></g><g fill="#545454" fill-opacity="1"><g transform="translate(164.256975, 182.249988)"><g><path d="M 5.28125 0.265625 C 4.125 0.265625 3.039062 0.171875 2.03125 -0.015625 L 2.03125 -14.234375 C 2.96875 -14.347656 4.050781 -14.40625 5.28125 -14.40625 C 6.519531 -14.40625 7.640625 -14.238281 8.640625 -13.90625 C 9.648438 -13.570312 10.492188 -13.09375 11.171875 -12.46875 C 12.523438 -11.21875 13.203125 -9.46875 13.203125 -7.21875 C 13.203125 -4.707031 12.445312 -2.796875 10.9375 -1.484375 C 9.570312 -0.316406 7.6875 0.265625 5.28125 0.265625 Z M 4.796875 -2.328125 C 5.253906 -2.242188 5.710938 -2.203125 6.171875 -2.203125 C 6.640625 -2.203125 7.140625 -2.289062 7.671875 -2.46875 C 8.203125 -2.65625 8.660156 -2.9375 9.046875 -3.3125 C 9.890625 -4.125 10.3125 -5.300781 10.3125 -6.84375 C 10.3125 -9.382812 9.382812 -10.945312 7.53125 -11.53125 C 6.914062 -11.71875 6.207031 -11.8125 5.40625 -11.8125 L 5.125 -11.8125 C 5.019531 -11.8125 4.910156 -11.8125 4.796875 -11.8125 Z M 4.796875 -2.328125 "/></g></g></g><g fill="#545454" fill-opacity="1"><g transform="translate(181.807971, 182.249988)"><g/></g></g><g fill="#545454" fill-opacity="1"><g transform="translate(192.076347, 182.249988)"><g><path d="M 10.375 -13.359375 L 10.171875 -10.234375 L 10.09375 -10.203125 C 9.570312 -10.992188 8.675781 -11.503906 7.40625 -11.734375 C 7.007812 -11.816406 6.628906 -11.859375 6.265625 -11.859375 C 5.898438 -11.859375 5.585938 -11.828125 5.328125 -11.765625 C 5.078125 -11.703125 4.859375 -11.609375 4.671875 -11.484375 C 4.273438 -11.234375 4.078125 -10.898438 4.078125 -10.484375 C 4.078125 -9.941406 4.25 -9.539062 4.59375 -9.28125 C 5.019531 -8.945312 5.722656 -8.710938 6.703125 -8.578125 C 7.691406 -8.453125 8.484375 -8.273438 9.078125 -8.046875 C 9.671875 -7.816406 10.160156 -7.53125 10.546875 -7.1875 C 11.273438 -6.539062 11.640625 -5.617188 11.640625 -4.421875 C 11.640625 -2.859375 11.050781 -1.65625 9.875 -0.8125 C 8.863281 -0.09375 7.59375 0.265625 6.0625 0.265625 C 4.832031 0.265625 3.613281 0.03125 2.40625 -0.4375 C 2.007812 -0.59375 1.660156 -0.773438 1.359375 -0.984375 L 1.484375 -4.53125 L 1.515625 -4.5625 C 2.398438 -3.039062 3.84375 -2.28125 5.84375 -2.28125 C 7.269531 -2.28125 8.210938 -2.625 8.671875 -3.3125 C 8.828125 -3.550781 8.90625 -3.8125 8.90625 -4.09375 C 8.90625 -4.382812 8.859375 -4.625 8.765625 -4.8125 C 8.679688 -5 8.53125 -5.160156 8.3125 -5.296875 C 7.90625 -5.566406 7.210938 -5.75 6.234375 -5.84375 C 5.265625 -5.9375 4.472656 -6.109375 3.859375 -6.359375 C 3.242188 -6.617188 2.75 -6.9375 2.375 -7.3125 C 1.707031 -7.988281 1.375 -8.9375 1.375 -10.15625 C 1.375 -11.414062 1.820312 -12.4375 2.71875 -13.21875 C 3.613281 -14.007812 4.820312 -14.40625 6.34375 -14.40625 C 7.875 -14.40625 9.21875 -14.054688 10.375 -13.359375 Z M 10.375 -13.359375 "/></g></g></g><g fill="#545454" fill-opacity="1"><g transform="translate(207.809346, 182.249988)"><g><path d="M 4.796875 0 C 4.890625 -0.28125 4.9375 -0.925781 4.9375 -1.9375 L 4.9375 -4.890625 C 3.707031 -7.585938 2.921875 -9.269531 2.578125 -9.9375 C 2.242188 -10.613281 1.957031 -11.148438 1.71875 -11.546875 C 0.976562 -12.785156 0.53125 -13.5 0.375 -13.6875 C 0.226562 -13.875 0.078125 -14.023438 -0.078125 -14.140625 L 3.59375 -14.140625 C 3.675781 -14.003906 3.78125 -13.796875 3.90625 -13.515625 L 6.484375 -8.078125 C 6.609375 -8.378906 6.75 -8.710938 6.90625 -9.078125 C 8.457031 -12.410156 9.242188 -14.097656 9.265625 -14.140625 L 12.765625 -14.140625 C 12.410156 -13.847656 11.96875 -13.238281 11.4375 -12.3125 C 11.28125 -12.039062 11.117188 -11.726562 10.953125 -11.375 L 8.546875 -6.359375 C 8.273438 -5.753906 8.046875 -5.210938 7.859375 -4.734375 L 7.859375 -1.6875 C 7.859375 -0.96875 7.898438 -0.40625 7.984375 0 Z M 4.796875 0 "/></g></g></g><g fill="#545454" fill-opacity="1"><g transform="translate(223.542345, 182.249988)"><g><path d="M 10.375 -13.359375 L 10.171875 -10.234375 L 10.09375 -10.203125 C 9.570312 -10.992188 8.675781 -11.503906 7.40625 -11.734375 C 7.007812 -11.816406 6.628906 -11.859375 6.265625 -11.859375 C 5.898438 -11.859375 5.585938 -11.828125 5.328125 -11.765625 C 5.078125 -11.703125 4.859375 -11.609375 4.671875 -11.484375 C 4.273438 -11.234375 4.078125 -10.898438 4.078125 -10.484375 C 4.078125 -9.941406 4.25 -9.539062 4.59375 -9.28125 C 5.019531 -8.945312 5.722656 -8.710938 6.703125 -8.578125 C 7.691406 -8.453125 8.484375 -8.273438 9.078125 -8.046875 C 9.671875 -7.816406 10.160156 -7.53125 10.546875 -7.1875 C 11.273438 -6.539062 11.640625 -5.617188 11.640625 -4.421875 C 11.640625 -2.859375 11.050781 -1.65625 9.875 -0.8125 C 8.863281 -0.09375 7.59375 0.265625 6.0625 0.265625 C 4.832031 0.265625 3.613281 0.03125 2.40625 -0.4375 C 2.007812 -0.59375 1.660156 -0.773438 1.359375 -0.984375 L 1.484375 -4.53125 L 1.515625 -4.5625 C 2.398438 -3.039062 3.84375 -2.28125 5.84375 -2.28125 C 7.269531 -2.28125 8.210938 -2.625 8.671875 -3.3125 C 8.828125 -3.550781 8.90625 -3.8125 8.90625 -4.09375 C 8.90625 -4.382812 8.859375 -4.625 8.765625 -4.8125 C 8.679688 -5 8.53125 -5.160156 8.3125 -5.296875 C 7.90625 -5.566406 7.210938 -5.75 6.234375 -5.84375 C 5.265625 -5.9375 4.472656 -6.109375 3.859375 -6.359375 C 3.242188 -6.617188 2.75 -6.9375 2.375 -7.3125 C 1.707031 -7.988281 1.375 -8.9375 1.375 -10.15625 C 1.375 -11.414062 1.820312 -12.4375 2.71875 -13.21875 C 3.613281 -14.007812 4.820312 -14.40625 6.34375 -14.40625 C 7.875 -14.40625 9.21875 -14.054688 10.375 -13.359375 Z M 10.375 -13.359375 "/></g></g></g><g fill="#545454" fill-opacity="1"><g transform="translate(239.275349, 182.249988)"><g><path d="M 6.9375 0.0625 C 6.59375 0.0195312 5.71875 0 4.3125 0 L 3.96875 0 L 3.96875 -11.765625 L 1.859375 -11.765625 C 1.234375 -11.765625 0.863281 -11.734375 0.75 -11.671875 C 0.632812 -11.609375 0.546875 -11.550781 0.484375 -11.5 L 0.453125 -11.5 L 0.453125 -14.234375 L 0.484375 -14.265625 C 0.722656 -14.179688 1.351562 -14.140625 2.375 -14.140625 L 9.046875 -14.140625 C 9.671875 -14.140625 10.039062 -14.171875 10.15625 -14.234375 C 10.269531 -14.304688 10.359375 -14.363281 10.421875 -14.40625 L 10.453125 -14.40625 L 10.453125 -11.671875 L 10.421875 -11.640625 C 10.191406 -11.722656 9.5625 -11.765625 8.53125 -11.765625 L 6.9375 -11.765625 Z M 6.9375 0.0625 "/></g></g></g><g fill="#545454" fill-opacity="1"><g transform="translate(253.232883, 182.249988)"><g><path d="M 8.9375 -2.546875 C 9.382812 -2.546875 9.691406 -2.59375 9.859375 -2.6875 L 9.90625 -2.671875 L 9.796875 0 L 1.828125 0 L 1.828125 -14.21875 C 2.015625 -14.207031 2.226562 -14.195312 2.46875 -14.1875 L 3.21875 -14.171875 C 3.707031 -14.148438 4.242188 -14.140625 4.828125 -14.140625 C 6.453125 -14.140625 8.054688 -14.171875 9.640625 -14.234375 C 9.566406 -13.609375 9.53125 -12.773438 9.53125 -11.734375 C 9.53125 -11.617188 9.535156 -11.53125 9.546875 -11.46875 L 9.53125 -11.4375 C 9.15625 -11.550781 8.628906 -11.609375 7.953125 -11.609375 L 4.609375 -11.609375 L 4.609375 -8.890625 L 7.125 -8.890625 C 7.90625 -8.890625 8.375 -8.910156 8.53125 -8.953125 L 8.5625 -6.328125 C 8.21875 -6.359375 7.78125 -6.375 7.25 -6.375 L 4.609375 -6.375 L 4.609375 -2.546875 Z M 8.9375 -2.546875 "/></g></g></g><g fill="#545454" fill-opacity="1"><g transform="translate(267.190417, 182.249988)"><g><path d="M 4.703125 0.0625 C 4.359375 0.0195312 3.703125 0 2.734375 0 L 1.875 0 L 1.875 -14.1875 C 2.332031 -14.15625 2.832031 -14.140625 3.375 -14.140625 C 3.925781 -14.140625 4.316406 -14.171875 4.546875 -14.234375 L 8.109375 -8.15625 L 11.546875 -14.234375 C 11.773438 -14.171875 12.207031 -14.140625 12.84375 -14.140625 C 13.488281 -14.140625 14.035156 -14.15625 14.484375 -14.1875 L 14.484375 0 L 13.640625 0 C 12.660156 0 12.003906 0.0195312 11.671875 0.0625 L 11.671875 -9.46875 L 8.1875 -3.25 L 4.703125 -8.96875 Z M 4.703125 0.0625 "/></g></g></g><g fill="#545454" fill-opacity="1"><g transform="translate(139.715328, 203.999987)"><g><path d="M 10.375 -13.359375 L 10.171875 -10.234375 L 10.09375 -10.203125 C 9.570312 -10.992188 8.675781 -11.503906 7.40625 -11.734375 C 7.007812 -11.816406 6.628906 -11.859375 6.265625 -11.859375 C 5.898438 -11.859375 5.585938 -11.828125 5.328125 -11.765625 C 5.078125 -11.703125 4.859375 -11.609375 4.671875 -11.484375 C 4.273438 -11.234375 4.078125 -10.898438 4.078125 -10.484375 C 4.078125 -9.941406 4.25 -9.539062 4.59375 -9.28125 C 5.019531 -8.945312 5.722656 -8.710938 6.703125 -8.578125 C 7.691406 -8.453125 8.484375 -8.273438 9.078125 -8.046875 C 9.671875 -7.816406 10.160156 -7.53125 10.546875 -7.1875 C 11.273438 -6.539062 11.640625 -5.617188 11.640625 -4.421875 C 11.640625 -2.859375 11.050781 -1.65625 9.875 -0.8125 C 8.863281 -0.09375 7.59375 0.265625 6.0625 0.265625 C 4.832031 0.265625 3.613281 0.03125 2.40625 -0.4375 C 2.007812 -0.59375 1.660156 -0.773438 1.359375 -0.984375 L 1.484375 -4.53125 L 1.515625 -4.5625 C 2.398438 -3.039062 3.84375 -2.28125 5.84375 -2.28125 C 7.269531 -2.28125 8.210938 -2.625 8.671875 -3.3125 C 8.828125 -3.550781 8.90625 -3.8125 8.90625 -4.09375 C 8.90625 -4.382812 8.859375 -4.625 8.765625 -4.8125 C 8.679688 -5 8.53125 -5.160156 8.3125 -5.296875 C 7.90625 -5.566406 7.210938 -5.75 6.234375 -5.84375 C 5.265625 -5.9375 4.472656 -6.109375 3.859375 -6.359375 C 3.242188 -6.617188 2.75 -6.9375 2.375 -7.3125 C 1.707031 -7.988281 1.375 -8.9375 1.375 -10.15625 C 1.375 -11.414062 1.820312 -12.4375 2.71875 -13.21875 C 3.613281 -14.007812 4.820312 -14.40625 6.34375 -14.40625 C 7.875 -14.40625 9.21875 -14.054688 10.375 -13.359375 Z M 10.375 -13.359375 "/></g></g></g><g fill="#545454" fill-opacity="1"><g transform="translate(155.448326, 203.999987)"><g><path d="M 2.984375 -1.671875 C 2.335938 -2.296875 1.828125 -3.039062 1.453125 -3.90625 C 1.085938 -4.769531 0.90625 -5.71875 0.90625 -6.75 C 0.90625 -7.78125 1.078125 -8.753906 1.421875 -9.671875 C 1.773438 -10.597656 2.269531 -11.410156 2.90625 -12.109375 C 3.550781 -12.816406 4.332031 -13.375 5.25 -13.78125 C 6.164062 -14.195312 7.191406 -14.40625 8.328125 -14.40625 C 10.285156 -14.40625 11.929688 -13.789062 13.265625 -12.5625 C 14.703125 -11.238281 15.421875 -9.457031 15.421875 -7.21875 C 15.421875 -5.050781 14.679688 -3.25 13.203125 -1.8125 C 12.296875 -0.925781 11.21875 -0.316406 9.96875 0.015625 C 9.351562 0.179688 8.628906 0.265625 7.796875 0.265625 C 6.972656 0.265625 6.125 0.0976562 5.25 -0.234375 C 4.382812 -0.578125 3.628906 -1.054688 2.984375 -1.671875 Z M 3.859375 -6.890625 C 3.859375 -6.234375 3.96875 -5.628906 4.1875 -5.078125 C 4.40625 -4.523438 4.710938 -4.046875 5.109375 -3.640625 C 5.929688 -2.804688 7 -2.390625 8.3125 -2.390625 C 9.550781 -2.390625 10.546875 -2.789062 11.296875 -3.59375 C 12.054688 -4.425781 12.4375 -5.554688 12.4375 -6.984375 C 12.4375 -8.335938 12.070312 -9.460938 11.34375 -10.359375 C 10.5625 -11.328125 9.484375 -11.8125 8.109375 -11.8125 C 6.785156 -11.8125 5.734375 -11.320312 4.953125 -10.34375 C 4.222656 -9.425781 3.859375 -8.273438 3.859375 -6.890625 Z M 3.859375 -6.890625 "/></g></g></g><g fill="#545454" fill-opacity="1"><g transform="translate(174.817319, 203.999987)"><g><path d="M 3.90625 0 C 2.863281 0 2.171875 0.0195312 1.828125 0.0625 L 1.828125 -14.203125 C 1.992188 -14.160156 2.34375 -14.140625 2.875 -14.140625 C 3.414062 -14.140625 4.039062 -14.15625 4.75 -14.1875 L 4.75 -2.546875 L 6.953125 -2.546875 C 7.585938 -2.546875 8.097656 -2.566406 8.484375 -2.609375 C 8.429688 -0.953125 8.40625 -0.09375 8.40625 -0.03125 L 8.40625 0.078125 C 7.71875 0.0234375 6.550781 0 4.90625 0 Z M 3.90625 0 "/></g></g></g><g fill="#545454" fill-opacity="1"><g transform="translate(186.95685, 203.999987)"><g><path d="M 9.890625 -14.203125 C 10.328125 -14.160156 10.691406 -14.140625 10.984375 -14.140625 L 11.875 -14.140625 C 12.164062 -14.140625 12.476562 -14.171875 12.8125 -14.234375 L 12.8125 -5.4375 C 12.8125 -3.6875 12.28125 -2.285156 11.21875 -1.234375 C 10.21875 -0.234375 8.960938 0.265625 7.453125 0.265625 C 5.804688 0.265625 4.472656 -0.160156 3.453125 -1.015625 C 2.304688 -1.984375 1.734375 -3.375 1.734375 -5.1875 L 1.734375 -14.203125 C 2.316406 -14.160156 2.867188 -14.140625 3.390625 -14.140625 C 3.921875 -14.140625 4.351562 -14.171875 4.6875 -14.234375 L 4.6875 -5.046875 C 4.6875 -4.160156 4.960938 -3.46875 5.515625 -2.96875 C 6.023438 -2.507812 6.660156 -2.28125 7.421875 -2.28125 C 8.554688 -2.28125 9.3125 -2.863281 9.6875 -4.03125 C 9.820312 -4.445312 9.890625 -4.960938 9.890625 -5.578125 Z M 9.890625 -14.203125 "/></g></g></g><g fill="#545454" fill-opacity="1"><g transform="translate(204.550372, 203.999987)"><g><path d="M 6.9375 0.0625 C 6.59375 0.0195312 5.71875 0 4.3125 0 L 3.96875 0 L 3.96875 -11.765625 L 1.859375 -11.765625 C 1.234375 -11.765625 0.863281 -11.734375 0.75 -11.671875 C 0.632812 -11.609375 0.546875 -11.550781 0.484375 -11.5 L 0.453125 -11.5 L 0.453125 -14.234375 L 0.484375 -14.265625 C 0.722656 -14.179688 1.351562 -14.140625 2.375 -14.140625 L 9.046875 -14.140625 C 9.671875 -14.140625 10.039062 -14.171875 10.15625 -14.234375 C 10.269531 -14.304688 10.359375 -14.363281 10.421875 -14.40625 L 10.453125 -14.40625 L 10.453125 -11.671875 L 10.421875 -11.640625 C 10.191406 -11.722656 9.5625 -11.765625 8.53125 -11.765625 L 6.9375 -11.765625 Z M 6.9375 0.0625 "/></g></g></g><g fill="#545454" fill-opacity="1"><g transform="translate(218.5079, 203.999987)"><g><path d="M 2.15625 -14.1875 C 2.863281 -14.15625 3.296875 -14.140625 3.453125 -14.140625 L 4.21875 -14.140625 C 4.59375 -14.140625 4.890625 -14.171875 5.109375 -14.234375 L 5.109375 0 L 2.15625 0 Z M 2.15625 -14.1875 "/></g></g></g><g fill="#545454" fill-opacity="1"><g transform="translate(228.829435, 203.999987)"><g><path d="M 2.984375 -1.671875 C 2.335938 -2.296875 1.828125 -3.039062 1.453125 -3.90625 C 1.085938 -4.769531 0.90625 -5.71875 0.90625 -6.75 C 0.90625 -7.78125 1.078125 -8.753906 1.421875 -9.671875 C 1.773438 -10.597656 2.269531 -11.410156 2.90625 -12.109375 C 3.550781 -12.816406 4.332031 -13.375 5.25 -13.78125 C 6.164062 -14.195312 7.191406 -14.40625 8.328125 -14.40625 C 10.285156 -14.40625 11.929688 -13.789062 13.265625 -12.5625 C 14.703125 -11.238281 15.421875 -9.457031 15.421875 -7.21875 C 15.421875 -5.050781 14.679688 -3.25 13.203125 -1.8125 C 12.296875 -0.925781 11.21875 -0.316406 9.96875 0.015625 C 9.351562 0.179688 8.628906 0.265625 7.796875 0.265625 C 6.972656 0.265625 6.125 0.0976562 5.25 -0.234375 C 4.382812 -0.578125 3.628906 -1.054688 2.984375 -1.671875 Z M 3.859375 -6.890625 C 3.859375 -6.234375 3.96875 -5.628906 4.1875 -5.078125 C 4.40625 -4.523438 4.710938 -4.046875 5.109375 -3.640625 C 5.929688 -2.804688 7 -2.390625 8.3125 -2.390625 C 9.550781 -2.390625 10.546875 -2.789062 11.296875 -3.59375 C 12.054688 -4.425781 12.4375 -5.554688 12.4375 -6.984375 C 12.4375 -8.335938 12.070312 -9.460938 11.34375 -10.359375 C 10.5625 -11.328125 9.484375 -11.8125 8.109375 -11.8125 C 6.785156 -11.8125 5.734375 -11.320312 4.953125 -10.34375 C 4.222656 -9.425781 3.859375 -8.273438 3.859375 -6.890625 Z M 3.859375 -6.890625 "/></g></g></g><g fill="#545454" fill-opacity="1"><g transform="translate(248.198421, 203.999987)"><g><path d="M 1.921875 0 C 1.960938 -0.238281 1.984375 -0.5 1.984375 -0.78125 L 1.984375 -14.140625 L 4.109375 -14.140625 L 9.75 -5.28125 L 9.75 -13.421875 C 9.75 -13.804688 9.710938 -14.046875 9.640625 -14.140625 L 12.515625 -14.140625 C 12.484375 -13.859375 12.46875 -13.546875 12.46875 -13.203125 L 12.46875 0 L 10.25 0 L 4.703125 -8.515625 L 4.703125 0 Z M 1.921875 0 "/></g></g></g><g fill="#545454" fill-opacity="1"><g transform="translate(265.696253, 203.999987)"><g><path d="M 10.375 -13.359375 L 10.171875 -10.234375 L 10.09375 -10.203125 C 9.570312 -10.992188 8.675781 -11.503906 7.40625 -11.734375 C 7.007812 -11.816406 6.628906 -11.859375 6.265625 -11.859375 C 5.898438 -11.859375 5.585938 -11.828125 5.328125 -11.765625 C 5.078125 -11.703125 4.859375 -11.609375 4.671875 -11.484375 C 4.273438 -11.234375 4.078125 -10.898438 4.078125 -10.484375 C 4.078125 -9.941406 4.25 -9.539062 4.59375 -9.28125 C 5.019531 -8.945312 5.722656 -8.710938 6.703125 -8.578125 C 7.691406 -8.453125 8.484375 -8.273438 9.078125 -8.046875 C 9.671875 -7.816406 10.160156 -7.53125 10.546875 -7.1875 C 11.273438 -6.539062 11.640625 -5.617188 11.640625 -4.421875 C 11.640625 -2.859375 11.050781 -1.65625 9.875 -0.8125 C 8.863281 -0.09375 7.59375 0.265625 6.0625 0.265625 C 4.832031 0.265625 3.613281 0.03125 2.40625 -0.4375 C 2.007812 -0.59375 1.660156 -0.773438 1.359375 -0.984375 L 1.484375 -4.53125 L 1.515625 -4.5625 C 2.398438 -3.039062 3.84375 -2.28125 5.84375 -2.28125 C 7.269531 -2.28125 8.210938 -2.625 8.671875 -3.3125 C 8.828125 -3.550781 8.90625 -3.8125 8.90625 -4.09375 C 8.90625 -4.382812 8.859375 -4.625 8.765625 -4.8125 C 8.679688 -5 8.53125 -5.160156 8.3125 -5.296875 C 7.90625 -5.566406 7.210938 -5.75 6.234375 -5.84375 C 5.265625 -5.9375 4.472656 -6.109375 3.859375 -6.359375 C 3.242188 -6.617188 2.75 -6.9375 2.375 -7.3125 C 1.707031 -7.988281 1.375 -8.9375 1.375 -10.15625 C 1.375 -11.414062 1.820312 -12.4375 2.71875 -13.21875 C 3.613281 -14.007812 4.820312 -14.40625 6.34375 -14.40625 C 7.875 -14.40625 9.21875 -14.054688 10.375 -13.359375 Z M 10.375 -13.359375 "/></g></g></g></svg>